# xmcd
#
# Track frame offsets: 
#        150
#        20334
#        45882
#        68527
#        80665
#        95873
#        122340
#        143935
#        161380
#        184530
#        207445
#        229006
#        249878
#        279499
#        295788
#
# Disc length: 4441 seconds
#
# Revision: 1
# Processed by: cddbd v1.5.2PL0 Copyright (c) Steve Scherf et al.
# Submitted via: ExactAudioCopy v0.99pb5
#
DISCID=c211570f
DTITLE=Various Artist - Nu Jazz Anthology - CD.03 -The Covers and Remixes
DYEAR=2007
DGENRE=Jazz
TTITLE0=Jamie Cullum - It Ain't Necessarily So
TTITLE1=Mo'Horizons - Hit the Road Jack [Pé Na Éstrada]
TTITLE2=Infracom Presents and  Re Jazz - Quiet Night [Nicola Conte Out o
TTITLE2=f the Cool Version]
TTITLE3=Dominique Dalcan - The Look of Love
TTITLE4=DJ Cam and Tassel and Naturel - Cantaloop Island
TTITLE5=Re Jazz and Ultra Nate - Twisted
TTITLE6=Patchworks - Summertime
TTITLE7=Re Jazz and Lissa Bassenge - All I Need
TTITLE8=Duran Y Garcia -  'Round Midnight
TTITLE9=Dani Siciliano - Come as You Are
TTITLE10=Alif Tree - Forgotten Places
TTITLE11=Marco Di Marco and Nathan Haines - Take Off [Nicola Conte Versi
TTITLE11=on]
TTITLE12=Dinning Rooms - Thin Ice [Paolo Fedreghini and Marco Bianchi Re
TTITLE12=mix]
TTITLE13=Jumbonics - (You Little) Jezebel [Diesler Mix]
TTITLE14=Jazzanova  - Coffee Talk [Yukihiro Fukutomi Remix]
EXTD=
EXTT0=
EXTT1=
EXTT2=
EXTT3=
EXTT4=
EXTT5=
EXTT6=
EXTT7=
EXTT8=
EXTT9=
EXTT10=
EXTT11=
EXTT12=
EXTT13=
EXTT14=
PLAYORDER=
